<svg version="1.1" viewBox="0.0 0.0 175.16535433070865 153.4251968503937" fill="none" stroke="none" stroke-linecap="square" stroke-miterlimit="10" xmlns:xlink="http://www.w3.org/1999/xlink" xmlns="http://www.w3.org/2000/svg"><clipPath id="p.0"><path d="m0 0l175.16536 0l0 153.4252l-175.16536 0l0 -153.4252z" clip-rule="nonzero"/></clipPath><g clip-path="url(#p.0)"><path fill="#000000" fill-opacity="0.0" d="m0 0l175.16536 0l0 153.4252l-175.16536 0z" fill-rule="evenodd"/><path fill="#000000" fill-opacity="0.0" d="m14.239781 92.55443l0 0c30.084301 -53.288956 75.28591 -84.74184 100.960625 -70.25197l-54.47244 96.48819z" fill-rule="evenodd"/><path fill="#000000" fill-opacity="0.0" d="m14.239781 92.55443l0 0c30.084301 -53.288956 75.28591 -84.74184 100.960625 -70.25197" fill-rule="evenodd"/><path stroke="#000000" stroke-width="1.0" stroke-linejoin="round" stroke-linecap="butt" d="m14.239781 92.55443l0 0c30.084301 -53.288956 75.28591 -84.74184 100.960625 -70.25197" fill-rule="evenodd"/><path fill="#000000" fill-opacity="0.0" d="m145.45662 65.81807l0 0c6.1754456 28.70913 -37.053543 61.77665 -96.755875 74.0123l-11.854088 -52.067825z" fill-rule="evenodd"/><path fill="#000000" fill-opacity="0.0" d="m145.45662 65.81807l0 0c6.1754456 28.70913 -37.053543 61.77665 -96.755875 74.0123" fill-rule="evenodd"/><path stroke="#000000" stroke-width="1.0" stroke-linejoin="round" stroke-linecap="butt" d="m145.45662 65.81807l0 0c6.1754456 28.70913 -37.053543 61.77665 -96.755875 74.0123" fill-rule="evenodd"/><path fill="#4a86e8" d="m63.485615 93.66874l0 0c-15.60313 -20.26493 -11.647724 -49.48276 8.834644 -65.25984l0 0c9.835983 -7.57642 22.245644 -10.976681 34.49901 -9.452763c12.253365 1.5239162 23.346687 7.8471813 30.839577 17.578749l0 0c15.603134 20.264935 11.64772 49.48276 -8.8346405 65.25984l0 0c-20.482376 15.777084 -49.73546 12.138954 -65.33859 -8.125984z" fill-rule="evenodd"/><path stroke="#000000" stroke-width="1.0" stroke-linejoin="round" stroke-linecap="butt" d="m63.485615 93.66874l0 0c-15.60313 -20.26493 -11.647724 -49.48276 8.834644 -65.25984l0 0c9.835983 -7.57642 22.245644 -10.976681 34.49901 -9.452763c12.253365 1.5239162 23.346687 7.8471813 30.839577 17.578749l0 0c15.603134 20.264935 11.64772 49.48276 -8.8346405 65.25984l0 0c-20.482376 15.777084 -49.73546 12.138954 -65.33859 -8.125984z" fill-rule="evenodd"/></g></svg>